<svg xmlns="http://www.w3.org/2000/svg" width="703.876" height="451" viewBox="0 0 703.876 451">
  <g id="Group_1" data-name="Group 1" transform="translate(-483 -222)">
    <rect id="Rectangle_1" data-name="Rectangle 1" width="703.576" height="450.601" transform="translate(483.3 222.399)" fill="#e6e6e6"/>
    <rect id="Rectangle_2" data-name="Rectangle 2" width="663.339" height="171.773" transform="translate(503.419 278.915)" fill="#fff"/>
    <rect id="Rectangle_3" data-name="Rectangle 3" width="140.281" height="8.053" transform="translate(668.418 303.727)" fill="#e6e6e6"/>
    <rect id="Rectangle_4" data-name="Rectangle 4" width="216.625" height="8.053" transform="translate(668.418 333.101)" fill="#00bfa6"/>
    <rect id="Rectangle_5" data-name="Rectangle 5" width="176.544" height="8.053" transform="translate(668.418 360.776)" fill="#e6e6e6"/>
    <rect id="Rectangle_6" data-name="Rectangle 6" width="103.064" height="8.053" transform="translate(668.418 388.346)" fill="#e6e6e6"/>
    <rect id="Rectangle_7" data-name="Rectangle 7" width="155.55" height="8.053" transform="translate(668.418 415.915)" fill="#e6e6e6"/>
    <rect id="Rectangle_8" data-name="Rectangle 8" width="17.177" height="17.177" transform="translate(604.48 300.864)" fill="#e6e6e6"/>
    <rect id="Rectangle_9" data-name="Rectangle 9" width="17.177" height="17.177" transform="translate(604.48 328.539)" fill="#00bfa6"/>
    <rect id="Rectangle_10" data-name="Rectangle 10" width="17.177" height="17.177" transform="translate(604.48 356.213)" fill="#e6e6e6"/>
    <rect id="Rectangle_11" data-name="Rectangle 11" width="17.177" height="17.177" transform="translate(604.48 383.888)" fill="#e6e6e6"/>
    <rect id="Rectangle_12" data-name="Rectangle 12" width="17.177" height="17.177" transform="translate(604.48 411.562)" fill="#e6e6e6"/>
    <rect id="Rectangle_13" data-name="Rectangle 13" width="57.258" height="57.258" transform="translate(1016.736 339.99)" fill="#e6e6e6"/>
    <rect id="Rectangle_14" data-name="Rectangle 14" width="663.339" height="171.773" transform="translate(503.419 474.546)" fill="#fff"/>
    <rect id="Rectangle_15" data-name="Rectangle 15" width="17.177" height="17.177" transform="translate(634.064 489.812)" fill="#e6e6e6"/>
    <rect id="Rectangle_16" data-name="Rectangle 16" width="17.177" height="17.177" transform="translate(604.48 489.812)" fill="#00bfa6"/>
    <path id="Path_1" data-name="Path 1" d="M534.748,435.763a65.046,65.046,0,0,0-105-9.7l-4.186-3.658a70.594,70.594,0,0,1,113.973,10.526Z" transform="translate(360.976 91.612)" fill="#e6e6e6"/>
    <path id="Path_2" data-name="Path 2" d="M537.367,508.182l-4.613-3.1a65.078,65.078,0,0,0,1.994-69.316l4.784-2.832a70.637,70.637,0,0,1-2.164,75.25Z" transform="translate(360.976 91.612)" fill="#00bfa6"/>
    <path id="Path_3" data-name="Path 3" d="M426.138,515.926a70.589,70.589,0,0,1-.579-93.521l4.186,3.658a65.031,65.031,0,0,0,.534,86.154Z" transform="translate(360.976 91.612)" fill="#00bfa6"/>
    <path id="Path_4" data-name="Path 4" d="M478.738,539.44a70.709,70.709,0,0,1-52.6-23.514l4.141-3.709a65.043,65.043,0,0,0,102.476-7.138l4.613,3.1a70.554,70.554,0,0,1-58.63,31.259Z" transform="translate(360.976 91.612)" fill="#00bfa6"/>
    <rect id="Rectangle_17" data-name="Rectangle 17" width="57.258" height="57.258" transform="translate(1016.736 527.032)" fill="#e6e6e6"/>
    <rect id="Rectangle_18" data-name="Rectangle 18" width="57.258" height="57.258" transform="translate(602.095 564.249)" fill="#e6e6e6"/>
    <rect id="Rectangle_19" data-name="Rectangle 19" width="703.576" height="29.89" transform="translate(483 222)" fill="#00bfa6"/>
    <circle id="Ellipse_1" data-name="Ellipse 1" cx="5.54" cy="5.54" r="5.54" transform="translate(499.672 231.742)" fill="#fff"/>
    <circle id="Ellipse_2" data-name="Ellipse 2" cx="5.54" cy="5.54" r="5.54" transform="translate(520.701 231.742)" fill="#fff"/>
    <circle id="Ellipse_3" data-name="Ellipse 3" cx="5.54" cy="5.54" r="5.54" transform="translate(541.729 231.742)" fill="#fff"/>
  </g>
</svg>
