<svg xmlns="http://www.w3.org/2000/svg" width="722.42" height="579.279" viewBox="0 0 722.42 579.279">
  <g id="Group_1" data-name="Group 1" transform="translate(-291 -132)">
    <rect id="Rectangle_62" data-name="Rectangle 62" width="703.576" height="333.859" transform="translate(291.3 151.289)" fill="#e6e6e6"/>
    <rect id="Rectangle_75" data-name="Rectangle 75" width="663.339" height="278.549" transform="translate(311.419 179.918)" fill="#fff"/>
    <rect id="Rectangle_80" data-name="Rectangle 80" width="703.576" height="29.89" transform="translate(291 132)" fill="#00bfa6"/>
    <circle id="Ellipse_90" data-name="Ellipse 90" cx="5.54" cy="5.54" r="5.54" transform="translate(307.672 144.036)" fill="#fff"/>
    <circle id="Ellipse_91" data-name="Ellipse 91" cx="5.54" cy="5.54" r="5.54" transform="translate(328.7 144.036)" fill="#fff"/>
    <circle id="Ellipse_92" data-name="Ellipse 92" cx="5.54" cy="5.54" r="5.54" transform="translate(349.729 144.036)" fill="#fff"/>
    <rect id="Rectangle_1" data-name="Rectangle 1" width="93.423" height="7.022" transform="translate(693.655 222.268)" fill="#e6e6e6"/>
    <rect id="Rectangle_2" data-name="Rectangle 2" width="144.266" height="7.022" transform="translate(693.655 242.882)" fill="#00bfa6"/>
    <rect id="Rectangle_3" data-name="Rectangle 3" width="117.573" height="7.022" transform="translate(695.155 262.514)" fill="#e6e6e6"/>
    <rect id="Rectangle_4" data-name="Rectangle 4" width="68.637" height="7.022" transform="translate(693.655 284.055)" fill="#e6e6e6"/>
    <rect id="Rectangle_5" data-name="Rectangle 5" width="103.592" height="7.022" transform="translate(693.655 305.095)" fill="#00bfa6"/>
    <rect id="Rectangle_6" data-name="Rectangle 6" width="11.44" height="11.44" transform="translate(651.074 220.059)" fill="#e6e6e6"/>
    <rect id="Rectangle_7" data-name="Rectangle 7" width="11.44" height="11.439" transform="translate(651.074 240.673)" fill="#00bfa6"/>
    <rect id="Rectangle_8" data-name="Rectangle 8" width="11.44" height="11.44" transform="translate(651.074 260.305)" fill="#e6e6e6"/>
    <rect id="Rectangle_9" data-name="Rectangle 9" width="11.44" height="11.44" transform="translate(651.074 281.846)" fill="#e6e6e6"/>
    <rect id="Rectangle_10" data-name="Rectangle 10" width="11.44" height="11.44" transform="translate(651.074 302.887)" fill="#00bfa6"/>
    <rect id="Rectangle_11" data-name="Rectangle 11" width="93.423" height="7.022" transform="translate(693.655 326.268)" fill="#e6e6e6"/>
    <rect id="Rectangle_12" data-name="Rectangle 12" width="144.266" height="7.022" transform="translate(693.655 346.882)" fill="#00bfa6"/>
    <rect id="Rectangle_13" data-name="Rectangle 13" width="117.573" height="7.022" transform="translate(695.155 366.514)" fill="#e6e6e6"/>
    <rect id="Rectangle_14" data-name="Rectangle 14" width="68.637" height="7.022" transform="translate(693.655 388.055)" fill="#e6e6e6"/>
    <rect id="Rectangle_15" data-name="Rectangle 15" width="103.592" height="7.022" transform="translate(693.655 409.095)" fill="#e6e6e6"/>
    <rect id="Rectangle_16" data-name="Rectangle 16" width="11.44" height="11.44" transform="translate(651.074 324.059)" fill="#e6e6e6"/>
    <rect id="Rectangle_17" data-name="Rectangle 17" width="11.44" height="11.439" transform="translate(651.074 344.673)" fill="#00bfa6"/>
    <rect id="Rectangle_18" data-name="Rectangle 18" width="11.44" height="11.44" transform="translate(651.074 364.305)" fill="#e6e6e6"/>
    <rect id="Rectangle_19" data-name="Rectangle 19" width="11.44" height="11.44" transform="translate(651.074 385.846)" fill="#e6e6e6"/>
    <rect id="Rectangle_20" data-name="Rectangle 20" width="11.44" height="11.44" transform="translate(651.074 406.887)" fill="#e6e6e6"/>
    <rect id="Rectangle_21" data-name="Rectangle 21" width="93.423" height="7.022" transform="translate(398.112 381.347)" fill="#024162"/>
    <rect id="Rectangle_22" data-name="Rectangle 22" width="117.573" height="7.022" transform="translate(385.612 399.593)" fill="#024162"/>
    <path id="Path_1" data-name="Path 1" d="M424.884,320.8a61.023,61.023,0,0,1-89.925,53.721l-.012-.012a61,61,0,1,1,89.936-53.71Z" transform="translate(80.66 -28.028)" fill="#024162"/>
    <circle id="Ellipse_1" data-name="Ellipse 1" cx="16.583" cy="16.583" r="16.583" transform="translate(428.273 256.643)" fill="#fff"/>
    <path id="Path_2" data-name="Path 2" d="M392.51,352.1a85.47,85.47,0,0,1-57.239-.222l-.012-.008,12.354-24.386h33.165Z" transform="translate(80.66 -28.028)" fill="#fff"/>
    <path id="Path_3" data-name="Path 3" d="M656.072,567.394H643.813l-5.833-47.288h18.1Z" transform="translate(291 132)" fill="#ffb7b7"/>
    <path id="Path_4" data-name="Path 4" d="M869.539,739.306H830.008v-.5a15.387,15.387,0,0,1,15.385-15.386H869.54Z" transform="translate(80.66 -28.028)" fill="#024162"/>
    <path id="Path_5" data-name="Path 5" d="M686.016,567.394h12.26l5.832-47.288H686.014Z" transform="translate(291 132)" fill="#ffb7b7"/>
    <path id="Path_6" data-name="Path 6" d="M893.229,723.42h24.145A15.387,15.387,0,0,1,932.76,738.8v.5H893.23Z" transform="translate(80.66 -28.028)" fill="#024162"/>
    <circle id="Ellipse_2" data-name="Ellipse 2" cx="21.428" cy="21.428" r="21.428" transform="translate(896.43 329.978) rotate(-63.58)" fill="#ffb7b7"/>
    <path id="Path_7" data-name="Path 7" d="M828.719,495.759s-6.767,28.195-3.383,41.728S838.869,643.5,838.869,643.5l6.767,73.307,27.067,2.256L869.32,633.35l3.383-74.435,19.173,72.179v85.968l28.706,1.128.617-111.907s2.256-87.968-12.406-99.246S891.876,493.5,891.876,493.5Z" transform="translate(80.66 -28.028)" fill="#024162"/>
    <path id="Path_8" data-name="Path 8" d="M869.58,371.7l25.679,13.534,3.383,117.291s-14.661-9.022-37.217,2.256-37.217,3.383-37.217,3.383l13.534-50.751L832.1,389.746l8.065-7.32Z" transform="translate(80.66 -28.028)" fill="#cbcbcb"/>
    <path id="Path_9" data-name="Path 9" d="M840.17,380.291l-4.685,3.816s-29.323,14.661-30.451,24.811l20.3,55.262s5.639,12.406,1.128,16.917-9.022,15.789-7.895,21.428-6.767,29.323,2.256,29.323,30.451-54.134,29.323-75.562S848.239,378.73,840.17,380.291Z" transform="translate(80.66 -28.028)" fill="#024162"/>
    <path id="Path_10" data-name="Path 10" d="M859.884,372.972l10.33-1.719S908.559,381.4,914.2,398.32l-15.789,39.473s11.278,72.179,7.895,72.179H902.92s9.022,6.767,3.383,9.022-19.173,20.3-22.556,12.406-23.684-101.5-21.428-121.8S857.881,375.1,859.884,372.972Z" transform="translate(80.66 -28.028)" fill="#024162"/>
    <path id="Path_11" data-name="Path 11" d="M864.367,327.366l1-2.02-5.05-2.509s-5.571-9.065-15.652-6.517-14.616,4.072-14.616,4.072l-5.037,2.535,2.528,2.515-4.535,1.525,3.03,1.505-3.525,2.026,1.9,10.388s3.152-7.879,9.212-4.868,17.145-1.556,17.145-1.556L860.4,353.1s1.987-6.533,5.529-4.791C865.926,348.307,874.976,333.9,864.367,327.366Z" transform="translate(80.66 -28.028)" fill="#024162"/>
    <path id="Path_12" data-name="Path 12" d="M895.736,525.265a10.056,10.056,0,0,1,7.187-13.642l4.341-35.47,14.146,12.031-6.291,31.839a10.11,10.11,0,0,1-19.383,5.243Z" transform="translate(80.66 -28.028)" fill="#ffb7b7"/>
    <path id="Path_13" data-name="Path 13" d="M835.234,522.824a10.056,10.056,0,0,0-8.593-12.8l-8.078-34.81-12.79,13.463,9.632,30.992a10.11,10.11,0,0,0,19.829,3.158Z" transform="translate(80.66 -28.028)" fill="#ffb7b7"/>
    <path id="Path_14" data-name="Path 14" d="M896.281,389.129s14.661-5.639,19.173,11.278,10.15,50.751,10.15,50.751c.28,18.814-.72,18.814,0,37.217l-3.383,16.917-19.173-2.256.836-43.065L894.026,416.2Z" transform="translate(80.66 -28.028)" fill="#024162"/>
    <path id="Path_15" data-name="Path 15" d="M815.185,402.152l-6.951.744s-6.582,4.9-6.582,16.173-1.128,45.112-1.128,45.112-.64.792,4.511,29.323c2.511,13.906,6.849,20.469,6.849,20.469l14-13-1.677-33.408,4.511-18.045Z" transform="translate(80.66 -28.028)" fill="#024162"/>
  </g>
</svg>
